<svg id="Capa_1" data-name="Capa 1" xmlns="http://www.w3.org/2000/svg" viewBox="0 0 700 560"><defs><style>.cls-1{fill:#787878;}.cls-2{fill:#fff;}</style></defs><title>loadgrey</title><rect class="cls-1" width="700" height="560" rx="145.67" ry="145.67"/><path class="cls-2" d="M350,349a11.29,11.29,0,0,0-11.29,11.29v80.17a11.29,11.29,0,0,0,22.59,0V360.27A11.29,11.29,0,0,0,350,349Z"/><path class="cls-2" d="M350,108.27a11.29,11.29,0,0,0-11.29,11.29v80.15a11.29,11.29,0,0,0,22.59,0V119.56A11.29,11.29,0,0,0,350,108.27Z"/><path class="cls-2" d="M281.1,280a11.29,11.29,0,0,0-11.29-11.29H189.56a11.29,11.29,0,1,0,0,22.59h80.24A11.29,11.29,0,0,0,281.1,280Z"/><path class="cls-2" d="M510.44,268.73h-80.2a11.29,11.29,0,1,0,0,22.59h80.2a11.29,11.29,0,0,0,0-22.59Z"/><path class="cls-2" d="M285.29,328.74l-56.71,56.73a11.29,11.29,0,0,0,16,16l56.71-56.73a11.29,11.29,0,0,0-16-16Z"/><path class="cls-2" d="M285.23,231.21a11.29,11.29,0,1,0,16-16l-56.65-56.65a11.29,11.29,0,1,0-16,16Z"/><path class="cls-2" d="M414.74,328.81a11.29,11.29,0,0,0-16,16l56.68,56.65a11.29,11.29,0,1,0,16-16Z"/></svg>