<svg id="Capa_1" data-name="Capa 1" xmlns="http://www.w3.org/2000/svg" viewBox="0 0 700 560"><defs><style>.cls-1{fill:#f28c37;}.cls-2{fill:#fff;}</style></defs><title>downloadorange</title><rect class="cls-1" width="700" height="560" rx="145.67" ry="145.67"/><path class="cls-2" d="M475.44,299.3v82H224.54v-82H176.32V405.43a24.1,24.1,0,0,0,24.15,24.1h299a24.1,24.1,0,0,0,24.15-24.1V299.3Z"/><path class="cls-2" d="M256.27,222.8a9.65,9.65,0,0,1,0-14l14-14a9.65,9.65,0,0,1,14,0l1,1,54.91,58.9a4.83,4.83,0,0,0,7,0L480.89,116h1a9.65,9.65,0,0,1,14,0l14,14a9.65,9.65,0,0,1,0,14h0L350.11,309.66a9.65,9.65,0,0,1-14,0L258.26,225.8l-2-3Z"/></svg>