<svg id="Capa_1" data-name="Capa 1" xmlns="http://www.w3.org/2000/svg" viewBox="0 0 700 560"><defs><style>.cls-1{fill:#787878;}.cls-2{fill:#fff;}</style></defs><title>downloadgrey</title><rect class="cls-1" width="700" height="560" rx="145.67" ry="145.67"/><path class="cls-2" d="M475.44,329.3v82H224.54v-82H176.32V435.43a24.1,24.1,0,0,0,24.15,24.1h299a24.1,24.1,0,0,0,24.15-24.1V329.3Z"/><path class="cls-2" d="M345.58,321.17l-69-83.42s-10.5-9.92.89-9.92h38.9V106.38s-1.55-5.92,7.37-5.92h54.76c6.42,0,6.28,5,6.28,5V225.32h35.91c13.82,0,3.41,10.38,3.41,10.38s-58.74,78-66.93,86.15C351.23,327.79,345.58,321.17,345.58,321.17Z"/></svg>